<svg width="124" height="30" viewBox="0 0 124 30" fill="none" xmlns="http://www.w3.org/2000/svg">
  <rect x="1" y="1" width="28" height="28" rx="8" fill="#A78BFA"/>
  <path d="M9 19L15 9L21 19H9Z" fill="#0F172A"/>
  <path d="M38 20V10H40.2L45.4 16.8V10H47.8V20H45.6L40.4 13.2V20H38Z" fill="#F8FAFC"/>
  <path d="M50.2 20V10H52.8V20H50.2Z" fill="#F8FAFC"/>
  <path d="M56.2 20V10H61.1C63.5 10 65 11.2 65 13.2C65 14.5 64.3 15.4 63.1 15.9L65.5 20H62.7L60.7 16.3H58.8V20H56.2ZM58.8 14.3H61C61.8 14.3 62.3 13.9 62.3 13.2C62.3 12.5 61.8 12 61 12H58.8V14.3Z" fill="#F8FAFC"/>
  <path d="M67.8 20V10H75.7V12H70.4V14H75V16H70.4V18H75.8V20H67.8Z" fill="#F8FAFC"/>
  <path d="M78.1 20V10H82C85 10 86.9 11.9 86.9 15C86.9 18.1 85 20 82 20H78.1ZM80.7 18H82C83.5 18 84.3 16.9 84.3 15C84.3 13.1 83.5 12 82 12H80.7V18Z" fill="#F8FAFC"/>
</svg>

